<svg width="320" height="320" viewBox="0 0 320 320" fill="none" xmlns="http://www.w3.org/2000/svg">
<rect width="320" height="320" fill="#FF1FB6"/>
<path d="M107.077 138.74L107.076 138.74C106.901 138.426 106.729 138.061 106.707 137.612C106.686 137.181 106.81 136.79 106.942 136.44M107.077 138.74L107.878 136.793M107.077 138.74C107.286 139.115 107.609 139.37 108.011 139.599C108.406 139.825 108.978 140.08 109.808 140.41C111.48 141.074 114.386 142.113 119.482 143.909C122.639 145.022 125.485 146.054 127.525 146.818C127.775 146.911 128.011 147 128.235 147.085M107.077 138.74L128.235 147.085M106.942 136.44L107.878 136.793M106.942 136.44C106.942 136.441 106.942 136.441 106.942 136.441L107.878 136.793M106.942 136.44C106.976 136.35 107.063 136.176 107.141 136.022L107.143 136.016C107.24 135.822 107.379 135.55 107.555 135.204C107.909 134.511 108.419 133.518 109.07 132.257C110.37 129.736 112.231 126.142 114.515 121.742C119.081 112.942 125.339 100.913 132.185 87.7807L133.072 88.243M107.878 136.793C108.042 136.355 119.38 114.508 133.072 88.243M133.072 88.243L132.185 87.7807C140.183 72.4394 146.452 60.4771 150.761 52.3299C152.915 48.2568 154.581 45.1347 155.729 43.0198C156.303 41.9632 156.749 41.1532 157.064 40.6001C157.221 40.325 157.349 40.105 157.447 39.9474C157.495 39.8703 157.543 39.7953 157.588 39.732C157.609 39.7017 157.641 39.6588 157.679 39.6146C157.697 39.5926 157.728 39.5584 157.768 39.521C157.798 39.4935 157.884 39.4146 158.015 39.3496C158.015 39.3496 158.015 39.3496 158.015 39.3496L133.072 88.243ZM128.235 147.085C127.608 147.28 126.88 147.506 126.066 147.756C123.182 148.642 119.229 149.841 114.904 151.137C110.576 152.434 106.573 153.641 103.608 154.541C102.126 154.99 100.903 155.364 100.028 155.633C99.191 155.891 98.6057 156.074 98.4716 156.128L98.4714 156.128C97.9881 156.321 97.6231 156.725 97.3395 157.118C97.0376 157.537 96.7275 158.09 96.3964 158.764M128.235 147.085L60.3073 234.252L59.5089 234.854C59.3104 234.591 59.1927 234.261 59.1242 234.005C59.05 233.728 59 233.409 59 233.104C59 232.927 59.0486 232.772 59.0609 232.733L59.0624 232.728C59.084 232.658 59.111 232.584 59.1385 232.513C59.1943 232.37 59.2725 232.186 59.3692 231.969C59.5637 231.532 59.8515 230.917 60.2302 230.129C60.9887 228.549 62.1248 226.246 63.6384 223.218C66.6662 217.161 71.2128 208.189 77.2893 196.281C87.2918 176.679 95.8867 159.802 96.3964 158.764M96.3964 158.764C96.3964 158.764 96.3964 158.764 96.3965 158.764L97.2941 159.205L96.3964 158.764ZM221.069 157.196L221.52 156.303C221.432 156.259 221.32 156.219 221.257 156.196C221.171 156.165 221.06 156.127 220.93 156.084C220.668 155.996 220.309 155.88 219.865 155.739C218.977 155.457 217.738 155.071 216.24 154.61C213.244 153.688 209.203 152.463 204.841 151.156C200.481 149.851 196.499 148.646 193.594 147.756C192.792 147.51 192.072 147.289 191.45 147.096C191.646 147.023 191.852 146.947 192.067 146.869C194.087 146.129 196.903 145.129 200.025 144.049C203.156 142.966 206.053 141.932 208.2 141.138C209.273 140.742 210.163 140.403 210.804 140.147C211.123 140.02 211.389 139.909 211.587 139.82C211.685 139.776 211.778 139.733 211.858 139.691C211.889 139.675 212.064 139.589 212.204 139.448L212.204 139.448C213.199 138.453 213.017 136.991 212.425 135.814L221.069 157.196ZM222.854 157.793C222.848 157.773 222.842 157.753 222.835 157.733C222.831 157.724 222.828 157.718 222.826 157.713C222.831 157.726 222.843 157.756 222.854 157.793ZM162.583 150.698C162.573 150.024 162.563 149.099 162.552 147.947C162.529 145.343 162.504 141.586 162.48 136.954C162.431 127.691 162.384 114.933 162.351 100.918C162.31 84.1158 162.3 71.3965 162.321 62.8987C162.33 59.0224 162.345 56.0268 162.367 53.9235C163.079 55.2468 163.983 56.9355 165.041 58.9156C167.725 63.94 171.395 70.837 175.401 78.3936C183.415 93.5073 190.533 106.929 191.22 108.218C196.559 118.239 200.33 125.36 202.749 129.993C203.959 132.31 204.828 133.999 205.385 135.116C205.522 135.389 205.638 135.626 205.736 135.828C205.447 135.934 205.095 136.062 204.685 136.209C203.43 136.66 201.65 137.289 199.52 138.035C195.259 139.528 189.605 141.488 183.954 143.434C178.304 145.38 172.659 147.312 168.418 148.748C166.297 149.466 164.53 150.059 163.289 150.468C163.029 150.553 162.794 150.63 162.583 150.698ZM206.348 135.679L206.348 135.679C206.348 135.679 206.348 135.679 206.348 135.679ZM156.537 144.806C156.51 147.973 156.472 149.752 156.419 150.739C156.133 150.64 155.794 150.521 155.406 150.386C154.145 149.945 152.376 149.324 150.269 148.583C146.054 147.101 140.491 145.139 134.944 143.18C129.396 141.22 123.866 139.264 119.717 137.792C117.643 137.057 115.915 136.443 114.703 136.01C114.374 135.893 114.084 135.789 113.835 135.7C114.156 135.067 114.627 134.147 115.228 132.979C116.444 130.617 118.188 127.247 120.286 123.206C124.481 115.123 130.088 104.357 135.704 93.5934C141.321 82.8301 146.946 72.0706 151.179 64.0014C153.296 59.9667 155.064 56.6055 156.308 54.253C156.368 54.1398 156.426 54.029 156.484 53.9206C156.484 53.9853 156.485 54.0508 156.486 54.1171C156.508 56.7057 156.527 60.4514 156.544 65.0761C156.578 74.3251 156.598 87.0846 156.598 101.122C156.598 125.373 156.593 138.127 156.537 144.806ZM156.336 151.635C156.332 151.648 156.332 151.644 156.337 151.627C156.337 151.63 156.336 151.633 156.336 151.635ZM171.185 154.042L170.857 153.097L171.185 154.042C174.113 153.026 176.811 152.103 178.8 151.434C179.795 151.1 180.609 150.83 181.185 150.644C181.474 150.551 181.698 150.48 181.853 150.434C181.863 150.431 181.872 150.428 181.881 150.425C181.937 150.439 182.006 150.456 182.089 150.477C182.352 150.546 182.724 150.648 183.192 150.78C184.127 151.044 185.425 151.423 186.965 151.879C190.045 152.79 194.08 154.008 198.088 155.232C202.096 156.456 206.073 157.684 209.036 158.618C209.942 158.903 210.752 159.16 211.438 159.381C210.531 159.759 209.39 160.232 208.061 160.78C204.553 162.226 199.739 164.195 194.466 166.339C183.92 170.627 171.899 175.515 167.753 177.201L168.13 178.128L167.753 177.201C165.684 178.043 163.759 178.808 162.326 179.361C161.608 179.638 161.018 179.86 160.596 180.012C160.439 180.069 160.309 180.114 160.207 180.148C160.113 180.114 159.996 180.07 159.854 180.016C159.44 179.86 158.842 179.629 158.084 179.333C156.569 178.742 154.426 177.897 151.863 176.882C146.737 174.85 139.937 172.138 133.14 169.416C126.342 166.695 119.547 163.963 114.43 161.893C111.872 160.858 109.734 159.989 108.226 159.37C108.22 159.367 108.214 159.365 108.209 159.363C108.883 159.146 109.676 158.895 110.561 158.618C113.51 157.691 117.47 156.47 121.463 155.251C125.456 154.033 129.479 152.819 132.553 151.908C134.091 151.452 135.389 151.073 136.327 150.806C136.797 150.673 137.171 150.57 137.438 150.499C137.529 150.476 137.604 150.456 137.665 150.441C137.672 150.444 137.68 150.446 137.688 150.448C137.84 150.493 138.06 150.562 138.345 150.654C138.914 150.837 139.717 151.105 140.697 151.438C142.656 152.104 145.31 153.025 148.185 154.04C151.068 155.058 153.759 155.985 155.773 156.657C156.779 156.993 157.621 157.267 158.235 157.458C158.541 157.553 158.798 157.629 158.993 157.683C159.09 157.71 159.18 157.733 159.258 157.751L159.264 157.752C159.312 157.763 159.451 157.794 159.594 157.794C159.737 157.794 159.875 157.763 159.924 157.752L159.929 157.751C160.008 157.734 160.099 157.71 160.196 157.684C160.394 157.63 160.654 157.554 160.964 157.459C161.588 157.268 162.443 156.994 163.466 156.658C165.514 155.986 168.252 155.06 171.185 154.042ZM99.9709 165.001C100.465 164.06 100.855 163.324 101.124 162.824C101.501 162.975 102.004 163.177 102.621 163.424C104.073 164.007 106.158 164.844 108.72 165.874C113.844 167.932 120.878 170.76 128.585 173.859C136.292 176.957 143.365 179.806 148.554 181.9C151.148 182.947 153.27 183.805 154.764 184.411C155.512 184.714 156.101 184.954 156.514 185.122C156.721 185.207 156.882 185.273 156.996 185.32C157.122 185.373 157.163 185.391 157.159 185.388L157.185 185.401L157.104 221.613C157.058 241.882 156.953 262.195 156.871 266.757L156.749 273.538L151.503 271.114L151.084 272.021L151.503 271.114C147.851 269.426 126.886 259.782 104.915 249.682C92.0425 243.765 82.0645 239.147 75.3114 235.984C71.9342 234.402 69.3669 233.185 67.6484 232.352C66.9094 231.994 66.3323 231.709 65.9171 231.497C65.9306 231.47 65.9445 231.441 65.9587 231.412C66.2292 230.858 66.6213 230.069 67.1185 229.077C68.1125 227.093 69.522 224.306 71.2091 220.985C74.5829 214.344 79.0641 205.574 83.5454 196.833C88.0268 188.093 92.5078 179.383 95.8812 172.864C97.5681 169.604 98.9773 166.893 99.9709 165.001ZM208.665 252.522C188.397 261.856 168.03 271.221 162.886 273.563C162.884 273.519 162.882 273.475 162.881 273.428C162.841 272.236 162.815 270.224 162.804 266.991C162.781 260.53 162.813 249.238 162.891 229.977C162.941 217.546 163.004 206.238 163.066 198.034C163.097 193.931 163.127 190.606 163.156 188.304C163.17 187.153 163.183 186.26 163.196 185.655C163.198 185.554 163.2 185.462 163.202 185.378C163.252 185.358 163.304 185.336 163.359 185.314C163.806 185.13 164.442 184.869 165.241 184.543C166.837 183.889 169.083 182.971 171.758 181.878C177.11 179.692 184.184 176.804 191.241 173.925C198.298 171.045 205.337 168.175 210.619 166.023C213.26 164.947 215.462 164.05 217.006 163.422C217.677 163.15 218.224 162.928 218.629 162.763C218.875 163.227 219.224 163.893 219.665 164.74C220.595 166.526 221.932 169.111 223.577 172.305C226.866 178.692 231.383 187.507 236.336 197.207C241.287 206.906 245.765 215.744 248.991 222.169C250.604 225.382 251.903 227.99 252.792 229.799C253.19 230.611 253.504 231.259 253.726 231.728C253.672 231.753 253.615 231.779 253.556 231.807C252.881 232.122 251.893 232.581 250.637 233.162C248.125 234.326 244.543 235.981 240.244 237.966C231.645 241.935 220.178 247.22 208.665 252.522ZM162.637 185.612L162.637 185.612L162.637 185.612ZM254.077 232.498C254.077 232.498 254.077 232.498 254.077 232.498C254.077 232.499 254.077 232.499 254.077 232.499L254.077 232.498Z" fill="white" stroke="white" stroke-width="2"/>
</svg>
